<svg width="130" height="40" viewBox="0 0 130 40" fill="none" xmlns="http://www.w3.org/2000/svg">
<rect width="130" height="40" rx="5" fill="black"/>
<path d="M21.088 14.632V23.416H27.6V25H19.248V14.632H21.088ZM31.463 20.6V23.416H38.823V25H29.623V14.632H38.807V16.216H31.463V19.08H37.479V20.6H31.463ZM40.0693 14.632H50.1173V16.216H40.0693V14.632ZM44.1813 16.024H46.0213V25H44.1813V16.024ZM51.8853 18.664L51.5813 18.184C51.7519 17.928 51.9066 17.656 52.0453 17.368C52.1946 17.0693 52.2746 16.7707 52.2853 16.472L51.4373 16.296V14.568H53.6453V15.816C53.6453 16.5307 53.4799 17.112 53.1493 17.56C52.8293 18.008 52.4079 18.376 51.8853 18.664ZM54.8569 21.544H56.6809C56.7129 21.9387 56.8675 22.296 57.1449 22.616C57.4222 22.9253 57.7849 23.1707 58.2329 23.352C58.6915 23.5227 59.2142 23.608 59.8009 23.608C60.3235 23.608 60.7555 23.544 61.0969 23.416C61.4382 23.288 61.6942 23.112 61.8649 22.888C62.0355 22.664 62.1209 22.392 62.1209 22.072C62.1209 21.7627 62.0195 21.5227 61.8169 21.352C61.6249 21.1813 61.3209 21.0373 60.9049 20.92C60.4889 20.8027 59.9609 20.6853 59.3209 20.568C58.7875 20.4613 58.2755 20.328 57.7849 20.168C57.2942 20.008 56.8515 19.8053 56.4569 19.56C56.0729 19.3147 55.7689 19.016 55.5449 18.664C55.3209 18.312 55.2089 17.8907 55.2089 17.4C55.2089 16.8347 55.3635 16.328 55.6729 15.88C55.9929 15.432 56.4622 15.08 57.0809 14.824C57.7102 14.568 58.4782 14.44 59.3849 14.44C60.7502 14.44 61.7902 14.7547 62.5049 15.384C63.2302 16.0027 63.5822 16.8507 63.5609 17.928H61.8009C61.7582 17.256 61.5075 16.776 61.0489 16.488C60.5902 16.1893 60.0089 16.04 59.3049 16.04C58.6649 16.04 58.1315 16.152 57.7049 16.376C57.2782 16.5893 57.0649 16.9467 57.0649 17.448C57.0649 17.6507 57.1129 17.832 57.2089 17.992C57.3155 18.1413 57.4862 18.28 57.7209 18.408C57.9662 18.5253 58.2915 18.6427 58.6969 18.76C59.1129 18.8667 59.6249 18.9787 60.2329 19.096C60.7449 19.192 61.2249 19.3147 61.6729 19.464C62.1315 19.6027 62.5262 19.7893 62.8569 20.024C63.1982 20.248 63.4649 20.536 63.6569 20.888C63.8489 21.24 63.9449 21.672 63.9449 22.184C63.9449 22.7707 63.7955 23.2933 63.4969 23.752C63.1982 24.2 62.7395 24.5573 62.1209 24.824C61.5022 25.08 60.7022 25.208 59.7209 25.208C58.9742 25.208 58.3235 25.1227 57.7689 24.952C57.2249 24.7707 56.7555 24.5413 56.3609 24.264C55.9769 23.976 55.6675 23.6667 55.4329 23.336C55.1982 23.0053 55.0329 22.6853 54.9369 22.376C54.8515 22.056 54.8249 21.7787 54.8569 21.544ZM67.9286 14.632H77.9766V16.216H67.9286V14.632ZM72.0406 16.024H73.8806V25H72.0406V16.024ZM80.2353 22.584V21H86.4753V22.584H80.2353ZM77.8193 25L82.3793 14.632H84.3633L88.9713 25H86.9553L82.9713 15.64H83.7713L79.8033 25H77.8193ZM92.3536 14.632V23.416H98.8656V25H90.5136V14.632H92.3536ZM104.665 19.96V19.08L111.321 25H108.681L102.729 19.56L108.009 14.632H110.601L104.665 19.96ZM100.889 14.632H102.729V25H100.889V14.632Z" fill="white"/>
</svg>
