<svg width="321" height="170" viewBox="0 0 321 170" fill="none" xmlns="http://www.w3.org/2000/svg">
<path d="M25.04 52.04V37.08H29.64V52.4C29.64 54.0267 29.4133 55.4667 28.96 56.72C28.5333 57.9467 27.9067 58.9867 27.08 59.84C26.28 60.6933 25.32 61.4 24.2 61.96C23.1067 62.4933 21.9067 62.88 20.6 63.12C19.2933 63.36 17.9067 63.48 16.44 63.48C14.9467 63.48 13.52 63.36 12.16 63.12C10.8267 62.88 9.6 62.4933 8.48 61.96C7.38667 61.4 6.44 60.6933 5.64 59.84C4.84 58.9867 4.21333 57.9467 3.76 56.72C3.33333 55.4667 3.12 54.0267 3.12 52.4V37.08H7.72V52.04C7.72 54.0667 8.10667 55.6133 8.88 56.68C9.65333 57.72 10.6933 58.44 12 58.84C13.3067 59.2133 14.7867 59.4 16.44 59.4C18.04 59.4 19.48 59.2133 20.76 58.84C22.0667 58.44 23.1067 57.72 23.88 56.68C24.6533 55.6133 25.04 54.0667 25.04 52.04ZM35.2534 43.08H39.7734V63H35.2534V43.08ZM48.2134 42.64C49.3868 42.64 50.4668 42.8 51.4534 43.12C52.4401 43.44 53.2801 43.9333 53.9734 44.6C54.6934 45.24 55.2401 46.0533 55.6134 47.04C56.0134 48 56.2134 49.1333 56.2134 50.44V63H51.6934V51.32C51.6934 49.6933 51.2934 48.4933 50.4934 47.72C49.7201 46.92 48.4801 46.52 46.7734 46.52C45.4934 46.52 44.3201 46.8 43.2534 47.36C42.2134 47.8933 41.3601 48.6 40.6934 49.48C40.0268 50.3333 39.6401 51.2667 39.5334 52.28L39.4934 50.12C39.6268 49.1333 39.9201 48.2 40.3734 47.32C40.8268 46.4133 41.4268 45.6133 42.1734 44.92C42.9201 44.2 43.8001 43.64 44.8134 43.24C45.8534 42.84 46.9868 42.64 48.2134 42.64ZM61.5519 35.08H66.0719V63H61.5519V35.08ZM82.1053 63.44C79.8653 63.44 77.8653 63.04 76.1053 62.24C74.3453 61.44 72.9453 60.2667 71.9053 58.72C70.892 57.1733 70.3853 55.2933 70.3853 53.08C70.3853 50.8933 70.892 49.0267 71.9053 47.48C72.9453 45.9067 74.3453 44.7067 76.1053 43.88C77.8653 43.0533 79.8653 42.64 82.1053 42.64C84.3453 42.64 86.332 43.0533 88.0653 43.88C89.8253 44.7067 91.212 45.9067 92.2253 47.48C93.2386 49.0267 93.7453 50.8933 93.7453 53.08C93.7453 55.2933 93.2386 57.1733 92.2253 58.72C91.212 60.2667 89.8253 61.44 88.0653 62.24C86.332 63.04 84.3453 63.44 82.1053 63.44ZM82.1053 59.8C83.412 59.8 84.5986 59.5467 85.6653 59.04C86.732 58.5067 87.5853 57.7467 88.2253 56.76C88.8653 55.7467 89.1853 54.52 89.1853 53.08C89.1853 51.6667 88.8653 50.4533 88.2253 49.44C87.5853 48.4 86.732 47.6133 85.6653 47.08C84.6253 46.5467 83.4386 46.28 82.1053 46.28C80.8253 46.28 79.6386 46.5467 78.5453 47.08C77.4786 47.6133 76.612 48.3867 75.9453 49.4C75.3053 50.4133 74.9853 51.64 74.9853 53.08C74.9853 54.52 75.3053 55.7467 75.9453 56.76C76.5853 57.7467 77.4386 58.5067 78.5053 59.04C79.5986 59.5467 80.7986 59.8 82.1053 59.8ZM119.354 55.28C119.194 56.9867 118.648 58.4533 117.714 59.68C116.781 60.9067 115.528 61.84 113.954 62.48C112.381 63.12 110.554 63.44 108.474 63.44C106.288 63.44 104.301 63.04 102.514 62.24C100.728 61.44 99.301 60.28 98.2344 58.76C97.1944 57.2133 96.6744 55.32 96.6744 53.08C96.6744 50.8667 97.1944 48.9867 98.2344 47.44C99.301 45.8933 100.728 44.7067 102.514 43.88C104.301 43.0533 106.288 42.64 108.474 42.64C110.554 42.64 112.368 42.9733 113.914 43.64C115.461 44.28 116.701 45.2133 117.634 46.44C118.594 47.64 119.154 49.08 119.314 50.76H115.194C114.741 49.3733 113.914 48.2933 112.714 47.52C111.514 46.72 110.101 46.32 108.474 46.32C107.168 46.32 105.968 46.5867 104.874 47.12C103.781 47.6267 102.901 48.3867 102.234 49.4C101.594 50.3867 101.274 51.6133 101.274 53.08C101.274 54.5467 101.594 55.7867 102.234 56.8C102.901 57.7867 103.781 58.5333 104.874 59.04C105.968 59.5467 107.168 59.8 108.474 59.8C110.261 59.8 111.714 59.4133 112.834 58.64C113.981 57.84 114.781 56.72 115.234 55.28H119.354ZM123.661 35.08H128.181V63H123.661V35.08ZM143.821 43.08L132.581 53.32L132.701 50.52L144.661 63H138.901L128.301 51.84L137.581 43.08H143.821ZM156.738 43.08H161.258V63H156.738V43.08ZM168.498 46.92C167.031 46.92 165.778 47.2267 164.738 47.84C163.724 48.4533 162.898 49.2 162.258 50.08C161.644 50.96 161.231 51.8 161.018 52.6L160.978 50.36C160.978 50.0667 161.058 49.6267 161.218 49.04C161.378 48.4267 161.631 47.76 161.978 47.04C162.324 46.32 162.778 45.6267 163.338 44.96C163.924 44.2667 164.644 43.7067 165.498 43.28C166.351 42.8533 167.351 42.64 168.498 42.64V46.92ZM188.616 56.44H192.976C192.763 57.8 192.216 59.0133 191.336 60.08C190.483 61.12 189.336 61.9467 187.896 62.56C186.456 63.1467 184.723 63.44 182.696 63.44C180.376 63.44 178.323 63.0267 176.536 62.2C174.749 61.3467 173.336 60.1467 172.296 58.6C171.283 57.0533 170.776 55.2133 170.776 53.08C170.776 50.9733 171.269 49.1333 172.256 47.56C173.269 45.9867 174.656 44.7733 176.416 43.92C178.176 43.0667 180.216 42.64 182.536 42.64C184.909 42.64 186.896 43.0667 188.496 43.92C190.123 44.7467 191.323 46 192.096 47.68C192.869 49.3333 193.189 51.4267 193.056 53.96H175.336C175.469 55.08 175.843 56.08 176.456 56.96C177.069 57.84 177.896 58.5333 178.936 59.04C179.976 59.5467 181.203 59.8 182.616 59.8C184.163 59.8 185.456 59.4933 186.496 58.88C187.563 58.24 188.269 57.4267 188.616 56.44ZM182.416 46.28C180.576 46.28 179.069 46.72 177.896 47.6C176.723 48.48 175.963 49.6133 175.616 51H188.536C188.403 49.5067 187.789 48.3467 186.696 47.52C185.603 46.6933 184.176 46.28 182.416 46.28ZM206.188 59.8H204.588L211.508 43.08H216.428L207.548 63H203.268L194.508 43.08H199.468L206.188 59.8ZM235.647 56.44H240.007C239.794 57.8 239.247 59.0133 238.367 60.08C237.514 61.12 236.367 61.9467 234.927 62.56C233.487 63.1467 231.754 63.44 229.727 63.44C227.407 63.44 225.354 63.0267 223.567 62.2C221.781 61.3467 220.367 60.1467 219.327 58.6C218.314 57.0533 217.807 55.2133 217.807 53.08C217.807 50.9733 218.301 49.1333 219.287 47.56C220.301 45.9867 221.687 44.7733 223.447 43.92C225.207 43.0667 227.247 42.64 229.567 42.64C231.941 42.64 233.927 43.0667 235.527 43.92C237.154 44.7467 238.354 46 239.127 47.68C239.901 49.3333 240.221 51.4267 240.087 53.96H222.367C222.501 55.08 222.874 56.08 223.487 56.96C224.101 57.84 224.927 58.5333 225.967 59.04C227.007 59.5467 228.234 59.8 229.647 59.8C231.194 59.8 232.487 59.4933 233.527 58.88C234.594 58.24 235.301 57.4267 235.647 56.44ZM229.447 46.28C227.607 46.28 226.101 46.72 224.927 47.6C223.754 48.48 222.994 49.6133 222.647 51H235.567C235.434 49.5067 234.821 48.3467 233.727 47.52C232.634 46.6933 231.207 46.28 229.447 46.28ZM244.043 43.08H248.563V63H244.043V43.08ZM257.003 42.64C258.176 42.64 259.256 42.8 260.243 43.12C261.229 43.44 262.069 43.9333 262.763 44.6C263.483 45.24 264.029 46.0533 264.403 47.04C264.803 48 265.003 49.1333 265.003 50.44V63H260.483V51.32C260.483 49.6933 260.083 48.4933 259.283 47.72C258.509 46.92 257.269 46.52 255.563 46.52C254.283 46.52 253.109 46.8 252.043 47.36C251.003 47.8933 250.149 48.6 249.483 49.48C248.816 50.3333 248.429 51.2667 248.323 52.28L248.283 50.12C248.416 49.1333 248.709 48.2 249.163 47.32C249.616 46.4133 250.216 45.6133 250.963 44.92C251.709 44.2 252.589 43.64 253.603 43.24C254.643 42.84 255.776 42.64 257.003 42.64ZM290.901 63H286.381V43.08H290.901V63ZM286.621 53.52L286.661 54.8C286.634 55.1467 286.528 55.6667 286.341 56.36C286.154 57.0533 285.861 57.8133 285.461 58.64C285.088 59.44 284.581 60.2133 283.941 60.96C283.301 61.68 282.501 62.28 281.541 62.76C280.608 63.2133 279.488 63.44 278.181 63.44C277.194 63.44 276.208 63.3067 275.221 63.04C274.261 62.8 273.381 62.3867 272.581 61.8C271.781 61.2133 271.141 60.4133 270.661 59.4C270.181 58.36 269.941 57.0667 269.941 55.52V43.08H274.461V54.68C274.461 55.9333 274.661 56.92 275.061 57.64C275.461 58.36 276.034 58.8667 276.781 59.16C277.554 59.4533 278.448 59.6 279.461 59.6C280.874 59.6 282.074 59.28 283.061 58.64C284.048 57.9733 284.834 57.1733 285.421 56.24C286.034 55.28 286.434 54.3733 286.621 53.52ZM312.639 56.44H316.999C316.786 57.8 316.239 59.0133 315.359 60.08C314.506 61.12 313.359 61.9467 311.919 62.56C310.479 63.1467 308.746 63.44 306.719 63.44C304.399 63.44 302.346 63.0267 300.559 62.2C298.773 61.3467 297.359 60.1467 296.319 58.6C295.306 57.0533 294.799 55.2133 294.799 53.08C294.799 50.9733 295.293 49.1333 296.279 47.56C297.293 45.9867 298.679 44.7733 300.439 43.92C302.199 43.0667 304.239 42.64 306.559 42.64C308.933 42.64 310.919 43.0667 312.519 43.92C314.146 44.7467 315.346 46 316.119 47.68C316.893 49.3333 317.213 51.4267 317.079 53.96H299.359C299.493 55.08 299.866 56.08 300.479 56.96C301.093 57.84 301.919 58.5333 302.959 59.04C303.999 59.5467 305.226 59.8 306.639 59.8C308.186 59.8 309.479 59.4933 310.519 58.88C311.586 58.24 312.293 57.4267 312.639 56.44ZM306.439 46.28C304.599 46.28 303.093 46.72 301.919 47.6C300.746 48.48 299.986 49.6133 299.639 51H312.559C312.426 49.5067 311.813 48.3467 310.719 47.52C309.626 46.6933 308.199 46.28 306.439 46.28ZM11.48 107.92C9.56 107.92 7.84 107.587 6.32 106.92C4.8 106.253 3.6 105.28 2.72 104C1.86667 102.72 1.44 101.187 1.44 99.4C1.44 97.6133 1.86667 96.0667 2.72 94.76C3.57333 93.4533 4.74667 92.44 6.24 91.72C7.76 91 9.50667 90.64 11.48 90.64C12.04 90.64 12.5733 90.68 13.08 90.76C13.6133 90.84 14.12 90.9467 14.6 91.08L24 91.12V94.88C22.72 94.88 21.4267 94.6933 20.12 94.32C18.8133 93.9467 17.6667 93.5333 16.68 93.08L16.56 92.84C17.4667 93.2933 18.28 93.8533 19 94.52C19.7467 95.16 20.3333 95.8933 20.76 96.72C21.1867 97.5467 21.4 98.4933 21.4 99.56C21.4 101.293 20.9733 102.787 20.12 104.04C19.2933 105.293 18.1333 106.253 16.64 106.92C15.1467 107.587 13.4267 107.92 11.48 107.92ZM17.88 119.12V118.2C17.88 116.92 17.4933 116.013 16.72 115.48C15.9467 114.947 14.8667 114.68 13.48 114.68H8C6.90667 114.68 5.97333 114.587 5.2 114.4C4.45333 114.24 3.85333 113.987 3.4 113.64C2.94667 113.32 2.61333 112.933 2.4 112.48C2.18667 112.027 2.08 111.533 2.08 111C2.08 109.96 2.41333 109.173 3.08 108.64C3.74667 108.08 4.61333 107.72 5.68 107.56C6.77333 107.4 7.93333 107.373 9.16 107.48L11.48 107.92C9.88 107.973 8.66667 108.12 7.84 108.36C7.04 108.573 6.64 109.013 6.64 109.68C6.64 110.08 6.8 110.4 7.12 110.64C7.44 110.88 7.89333 111 8.48 111H14.24C15.8933 111 17.3333 111.187 18.56 111.56C19.7867 111.96 20.7333 112.613 21.4 113.52C22.0667 114.453 22.4 115.72 22.4 117.32V119.12H17.88ZM11.48 104.4C12.52 104.4 13.4533 104.213 14.28 103.84C15.1333 103.44 15.8 102.867 16.28 102.12C16.76 101.373 17 100.467 17 99.4C17 98.3333 16.76 97.4267 16.28 96.68C15.8 95.9067 15.1467 95.32 14.32 94.92C13.4933 94.52 12.5467 94.32 11.48 94.32C10.4133 94.32 9.45333 94.52 8.6 94.92C7.77333 95.32 7.12 95.9067 6.64 96.68C6.16 97.4267 5.92 98.3333 5.92 99.4C5.92 100.467 6.16 101.373 6.64 102.12C7.12 102.867 7.77333 103.44 8.6 103.84C9.42667 104.213 10.3867 104.4 11.48 104.4ZM27.5581 91.08H32.0781V111H27.5581V91.08ZM39.3181 94.92C37.8515 94.92 36.5981 95.2267 35.5581 95.84C34.5448 96.4533 33.7181 97.2 33.0781 98.08C32.4648 98.96 32.0515 99.8 31.8381 100.6L31.7981 98.36C31.7981 98.0667 31.8781 97.6267 32.0381 97.04C32.1981 96.4267 32.4515 95.76 32.7981 95.04C33.1448 94.32 33.5981 93.6267 34.1581 92.96C34.7448 92.2667 35.4648 91.7067 36.3181 91.28C37.1715 90.8533 38.1715 90.64 39.3181 90.64V94.92ZM53.3163 111.44C51.0763 111.44 49.0763 111.04 47.3163 110.24C45.5563 109.44 44.1563 108.267 43.1163 106.72C42.1029 105.173 41.5963 103.293 41.5963 101.08C41.5963 98.8933 42.1029 97.0267 43.1163 95.48C44.1563 93.9067 45.5563 92.7067 47.3163 91.88C49.0763 91.0533 51.0763 90.64 53.3163 90.64C55.5563 90.64 57.5429 91.0533 59.2763 91.88C61.0363 92.7067 62.4229 93.9067 63.4363 95.48C64.4496 97.0267 64.9563 98.8933 64.9563 101.08C64.9563 103.293 64.4496 105.173 63.4363 106.72C62.4229 108.267 61.0363 109.44 59.2763 110.24C57.5429 111.04 55.5563 111.44 53.3163 111.44ZM53.3163 107.8C54.6229 107.8 55.8096 107.547 56.8763 107.04C57.9429 106.507 58.7963 105.747 59.4363 104.76C60.0763 103.747 60.3963 102.52 60.3963 101.08C60.3963 99.6667 60.0763 98.4533 59.4363 97.44C58.7963 96.4 57.9429 95.6133 56.8763 95.08C55.8363 94.5467 54.6496 94.28 53.3163 94.28C52.0363 94.28 50.8496 94.5467 49.7563 95.08C48.6896 95.6133 47.8229 96.3867 47.1563 97.4C46.5163 98.4133 46.1963 99.64 46.1963 101.08C46.1963 102.52 46.5163 103.747 47.1563 104.76C47.7963 105.747 48.6496 106.507 49.7163 107.04C50.8096 107.547 52.0096 107.8 53.3163 107.8ZM91.9022 107.64L90.5422 107.6L96.7022 91.08H101.662L93.5422 111H89.2622L83.3022 94.48H84.7422L78.6222 111H74.3822L66.4222 91.08H71.3822L77.3422 107.6L75.9822 107.64L81.4222 91.08H86.6622L91.9022 107.64ZM103.463 91.08H117.663V94.76H103.463V91.08ZM108.303 85.72H112.823V111H108.303V85.72ZM137.992 111V99.52C137.992 98.4533 137.805 97.5733 137.432 96.88C137.085 96.16 136.539 95.6267 135.792 95.28C135.045 94.9067 134.059 94.72 132.832 94.72C131.579 94.72 130.445 94.9733 129.432 95.48C128.419 95.9867 127.579 96.6667 126.912 97.52C126.272 98.3733 125.912 99.3067 125.832 100.32L125.792 98.08C125.925 97.12 126.219 96.2 126.672 95.32C127.125 94.4133 127.725 93.6133 128.472 92.92C129.219 92.2267 130.099 91.68 131.112 91.28C132.152 90.8533 133.285 90.64 134.512 90.64C135.685 90.64 136.765 90.8 137.752 91.12C138.739 91.44 139.579 91.92 140.272 92.56C140.992 93.1733 141.539 93.9467 141.912 94.88C142.312 95.7867 142.512 96.8533 142.512 98.08V111H137.992ZM121.552 111V83.08H126.072V111H121.552ZM155.299 91.32H169.859V94.96H155.299V91.32ZM166.859 83.08H170.219V86.96H167.659C166.939 86.9333 166.299 87.0133 165.739 87.2C165.179 87.3867 164.739 87.7333 164.419 88.24C164.125 88.7467 163.979 89.4667 163.979 90.4V111H159.459V89.96C159.459 88.36 159.752 87.0533 160.339 86.04C160.925 85.0267 161.765 84.28 162.859 83.8C163.979 83.32 165.312 83.08 166.859 83.08ZM183.59 111.44C181.35 111.44 179.35 111.04 177.59 110.24C175.83 109.44 174.43 108.267 173.39 106.72C172.376 105.173 171.87 103.293 171.87 101.08C171.87 98.8933 172.376 97.0267 173.39 95.48C174.43 93.9067 175.83 92.7067 177.59 91.88C179.35 91.0533 181.35 90.64 183.59 90.64C185.83 90.64 187.816 91.0533 189.55 91.88C191.31 92.7067 192.696 93.9067 193.71 95.48C194.723 97.0267 195.23 98.8933 195.23 101.08C195.23 103.293 194.723 105.173 193.71 106.72C192.696 108.267 191.31 109.44 189.55 110.24C187.816 111.04 185.83 111.44 183.59 111.44ZM183.59 107.8C184.896 107.8 186.083 107.547 187.15 107.04C188.216 106.507 189.07 105.747 189.71 104.76C190.35 103.747 190.67 102.52 190.67 101.08C190.67 99.6667 190.35 98.4533 189.71 97.44C189.07 96.4 188.216 95.6133 187.15 95.08C186.11 94.5467 184.923 94.28 183.59 94.28C182.31 94.28 181.123 94.5467 180.03 95.08C178.963 95.6133 178.096 96.3867 177.43 97.4C176.79 98.4133 176.47 99.64 176.47 101.08C176.47 102.52 176.79 103.747 177.43 104.76C178.07 105.747 178.923 106.507 179.99 107.04C181.083 107.547 182.283 107.8 183.59 107.8ZM199.199 91.08H203.719V111H199.199V91.08ZM210.959 94.92C209.492 94.92 208.239 95.2267 207.199 95.84C206.185 96.4533 205.359 97.2 204.719 98.08C204.105 98.96 203.692 99.8 203.479 100.6L203.439 98.36C203.439 98.0667 203.519 97.6267 203.679 97.04C203.839 96.4267 204.092 95.76 204.439 95.04C204.785 94.32 205.239 93.6267 205.799 92.96C206.385 92.2667 207.105 91.7067 207.959 91.28C208.812 90.8533 209.812 90.64 210.959 90.64V94.92ZM221.735 91.08H226.535L234.655 110.2L230.735 111L221.735 91.08ZM244.135 91.08L231.255 119H226.495L232.015 108.08L239.295 91.08H244.135ZM257.183 111.44C254.943 111.44 252.943 111.04 251.183 110.24C249.423 109.44 248.023 108.267 246.983 106.72C245.97 105.173 245.463 103.293 245.463 101.08C245.463 98.8933 245.97 97.0267 246.983 95.48C248.023 93.9067 249.423 92.7067 251.183 91.88C252.943 91.0533 254.943 90.64 257.183 90.64C259.423 90.64 261.41 91.0533 263.143 91.88C264.903 92.7067 266.29 93.9067 267.303 95.48C268.317 97.0267 268.823 98.8933 268.823 101.08C268.823 103.293 268.317 105.173 267.303 106.72C266.29 108.267 264.903 109.44 263.143 110.24C261.41 111.04 259.423 111.44 257.183 111.44ZM257.183 107.8C258.49 107.8 259.677 107.547 260.743 107.04C261.81 106.507 262.663 105.747 263.303 104.76C263.943 103.747 264.263 102.52 264.263 101.08C264.263 99.6667 263.943 98.4533 263.303 97.44C262.663 96.4 261.81 95.6133 260.743 95.08C259.703 94.5467 258.517 94.28 257.183 94.28C255.903 94.28 254.717 94.5467 253.623 95.08C252.557 95.6133 251.69 96.3867 251.023 97.4C250.383 98.4133 250.063 99.64 250.063 101.08C250.063 102.52 250.383 103.747 251.023 104.76C251.663 105.747 252.517 106.507 253.583 107.04C254.677 107.547 255.877 107.8 257.183 107.8ZM293.753 111H289.233V91.08H293.753V111ZM289.473 101.52L289.513 102.8C289.486 103.147 289.379 103.667 289.193 104.36C289.006 105.053 288.713 105.813 288.313 106.64C287.939 107.44 287.433 108.213 286.793 108.96C286.153 109.68 285.353 110.28 284.393 110.76C283.459 111.213 282.339 111.44 281.033 111.44C280.046 111.44 279.059 111.307 278.073 111.04C277.113 110.8 276.233 110.387 275.433 109.8C274.633 109.213 273.993 108.413 273.513 107.4C273.033 106.36 272.793 105.067 272.793 103.52V91.08H277.313V102.68C277.313 103.933 277.513 104.92 277.913 105.64C278.313 106.36 278.886 106.867 279.633 107.16C280.406 107.453 281.299 107.6 282.313 107.6C283.726 107.6 284.926 107.28 285.913 106.64C286.899 105.973 287.686 105.173 288.273 104.24C288.886 103.28 289.286 102.373 289.473 101.52ZM298.691 91.08H303.211V111H298.691V91.08ZM310.451 94.92C308.984 94.92 307.731 95.2267 306.691 95.84C305.678 96.4533 304.851 97.2 304.211 98.08C303.598 98.96 303.184 99.8 302.971 100.6L302.931 98.36C302.931 98.0667 303.011 97.6267 303.171 97.04C303.331 96.4267 303.584 95.76 303.931 95.04C304.278 94.32 304.731 93.6267 305.291 92.96C305.878 92.2667 306.598 91.7067 307.451 91.28C308.304 90.8533 309.304 90.64 310.451 90.64V94.92ZM16.2 159.44C14.5467 159.44 13.1467 159.12 12 158.48C10.8533 157.813 9.93333 156.96 9.24 155.92C8.54667 154.88 8.04 153.76 7.72 152.56C7.4 151.36 7.24 150.2 7.24 149.08C7.24 147.613 7.38667 146.253 7.68 145C8 143.747 8.50667 142.653 9.2 141.72C9.89333 140.76 10.8133 140.013 11.96 139.48C13.1067 138.92 14.52 138.64 16.2 138.64C18.1467 138.64 19.8667 139.08 21.36 139.96C22.8533 140.84 24.0267 142.067 24.88 143.64C25.7333 145.187 26.16 147 26.16 149.08C26.16 151.107 25.72 152.907 24.84 154.48C23.96 156.027 22.7733 157.24 21.28 158.12C19.7867 159 18.0933 159.44 16.2 159.44ZM14.84 155.76C16.1733 155.76 17.3467 155.48 18.36 154.92C19.3733 154.333 20.16 153.547 20.72 152.56C21.28 151.547 21.56 150.387 21.56 149.08C21.56 147.08 20.9733 145.453 19.8 144.2C18.6267 142.947 16.9733 142.32 14.84 142.32C13.3467 142.32 12.0667 142.6 11 143.16C9.96 143.693 9.14667 144.467 8.56 145.48C8 146.467 7.72 147.667 7.72 149.08C7.72 150.36 8 151.507 8.56 152.52C9.12 153.507 9.92 154.293 10.96 154.88C12.0267 155.467 13.32 155.76 14.84 155.76ZM7.72 131.08V154.24C7.72 154.987 7.68 155.813 7.6 156.72C7.54667 157.627 7.48 158.387 7.4 159H3.2V131.08H7.72ZM51.0963 159H46.5763V139.08H51.0963V159ZM46.8163 149.52L46.8563 150.8C46.8296 151.147 46.7229 151.667 46.5363 152.36C46.3496 153.053 46.0563 153.813 45.6563 154.64C45.2829 155.44 44.7763 156.213 44.1363 156.96C43.4963 157.68 42.6963 158.28 41.7363 158.76C40.8029 159.213 39.6829 159.44 38.3763 159.44C37.3896 159.44 36.4029 159.307 35.4163 159.04C34.4563 158.8 33.5763 158.387 32.7763 157.8C31.9763 157.213 31.3363 156.413 30.8563 155.4C30.3763 154.36 30.1363 153.067 30.1363 151.52V139.08H34.6563V150.68C34.6563 151.933 34.8563 152.92 35.2563 153.64C35.6563 154.36 36.2296 154.867 36.9763 155.16C37.7496 155.453 38.6429 155.6 39.6563 155.6C41.0696 155.6 42.2696 155.28 43.2563 154.64C44.2429 153.973 45.0296 153.173 45.6163 152.24C46.2296 151.28 46.6296 150.373 46.8163 149.52ZM55.1547 152.44H59.3547C59.568 153.427 60.1147 154.24 60.9947 154.88C61.8747 155.493 63.0614 155.8 64.5547 155.8C65.5414 155.8 66.3014 155.707 66.8347 155.52C67.3947 155.307 67.7814 155.013 67.9947 154.64C68.208 154.24 68.3147 153.813 68.3147 153.36C68.3147 152.773 68.1414 152.32 67.7947 152C67.4747 151.68 66.9814 151.413 66.3147 151.2C65.6747 150.987 64.8747 150.8 63.9147 150.64C62.9014 150.4 61.9147 150.147 60.9547 149.88C59.9947 149.587 59.128 149.213 58.3547 148.76C57.5814 148.307 56.968 147.747 56.5147 147.08C56.0614 146.387 55.8347 145.547 55.8347 144.56C55.8347 143.653 56.048 142.84 56.4747 142.12C56.9014 141.373 57.488 140.747 58.2347 140.24C59.008 139.733 59.9014 139.347 60.9147 139.08C61.9547 138.787 63.0747 138.64 64.2747 138.64C66.0347 138.64 67.5014 138.92 68.6747 139.48C69.848 140.04 70.728 140.827 71.3147 141.84C71.928 142.853 72.2347 144.013 72.2347 145.32H68.2747C68.0614 144.28 67.648 143.52 67.0347 143.04C66.4214 142.56 65.488 142.32 64.2347 142.32C63.008 142.32 62.0747 142.533 61.4347 142.96C60.7947 143.387 60.4747 143.96 60.4747 144.68C60.4747 145.267 60.6747 145.733 61.0747 146.08C61.5014 146.4 62.1014 146.68 62.8747 146.92C63.648 147.133 64.568 147.36 65.6347 147.6C66.5947 147.84 67.5014 148.107 68.3547 148.4C69.2347 148.693 70.008 149.053 70.6747 149.48C71.368 149.88 71.9147 150.413 72.3147 151.08C72.7414 151.747 72.9547 152.573 72.9547 153.56C72.9547 154.787 72.6214 155.84 71.9547 156.72C71.288 157.6 70.328 158.28 69.0747 158.76C67.848 159.213 66.368 159.44 64.6347 159.44C63.0614 159.44 61.7147 159.267 60.5947 158.92C59.5014 158.573 58.5814 158.12 57.8347 157.56C57.088 157 56.5147 156.4 56.1147 155.76C55.7147 155.12 55.4347 154.507 55.2747 153.92C55.1414 153.333 55.1014 152.84 55.1547 152.44ZM82.2522 130.6V134.92H76.8522V130.6H82.2522ZM77.2522 139.08H81.8122V159H77.2522V139.08ZM87.0894 139.08H91.6094V159H87.0894V139.08ZM100.049 138.64C101.223 138.64 102.303 138.8 103.289 139.12C104.276 139.44 105.116 139.933 105.809 140.6C106.529 141.24 107.076 142.053 107.449 143.04C107.849 144 108.049 145.133 108.049 146.44V159H103.529V147.32C103.529 145.693 103.129 144.493 102.329 143.72C101.556 142.92 100.316 142.52 98.6094 142.52C97.3294 142.52 96.156 142.8 95.0894 143.36C94.0494 143.893 93.196 144.6 92.5294 145.48C91.8627 146.333 91.476 147.267 91.3694 148.28L91.3294 146.12C91.4627 145.133 91.756 144.2 92.2094 143.32C92.6627 142.413 93.2627 141.613 94.0094 140.92C94.756 140.2 95.636 139.64 96.6494 139.24C97.6894 138.84 98.8227 138.64 100.049 138.64ZM129.788 152.44H134.148C133.934 153.8 133.388 155.013 132.508 156.08C131.654 157.12 130.508 157.947 129.068 158.56C127.628 159.147 125.894 159.44 123.868 159.44C121.548 159.44 119.494 159.027 117.708 158.2C115.921 157.347 114.508 156.147 113.468 154.6C112.454 153.053 111.948 151.213 111.948 149.08C111.948 146.973 112.441 145.133 113.428 143.56C114.441 141.987 115.828 140.773 117.588 139.92C119.348 139.067 121.388 138.64 123.708 138.64C126.081 138.64 128.068 139.067 129.668 139.92C131.294 140.747 132.494 142 133.268 143.68C134.041 145.333 134.361 147.427 134.228 149.96H116.508C116.641 151.08 117.014 152.08 117.628 152.96C118.241 153.84 119.068 154.533 120.108 155.04C121.148 155.547 122.374 155.8 123.788 155.8C125.334 155.8 126.628 155.493 127.668 154.88C128.734 154.24 129.441 153.427 129.788 152.44ZM123.588 142.28C121.748 142.28 120.241 142.72 119.068 143.6C117.894 144.48 117.134 145.613 116.788 147H129.708C129.574 145.507 128.961 144.347 127.868 143.52C126.774 142.693 125.348 142.28 123.588 142.28ZM137.303 152.44H141.503C141.716 153.427 142.263 154.24 143.143 154.88C144.023 155.493 145.21 155.8 146.703 155.8C147.69 155.8 148.45 155.707 148.983 155.52C149.543 155.307 149.93 155.013 150.143 154.64C150.356 154.24 150.463 153.813 150.463 153.36C150.463 152.773 150.29 152.32 149.943 152C149.623 151.68 149.13 151.413 148.463 151.2C147.823 150.987 147.023 150.8 146.063 150.64C145.05 150.4 144.063 150.147 143.103 149.88C142.143 149.587 141.276 149.213 140.503 148.76C139.73 148.307 139.116 147.747 138.663 147.08C138.21 146.387 137.983 145.547 137.983 144.56C137.983 143.653 138.196 142.84 138.623 142.12C139.05 141.373 139.636 140.747 140.383 140.24C141.156 139.733 142.05 139.347 143.063 139.08C144.103 138.787 145.223 138.64 146.423 138.64C148.183 138.64 149.65 138.92 150.823 139.48C151.996 140.04 152.876 140.827 153.463 141.84C154.076 142.853 154.383 144.013 154.383 145.32H150.423C150.21 144.28 149.796 143.52 149.183 143.04C148.57 142.56 147.636 142.32 146.383 142.32C145.156 142.32 144.223 142.533 143.583 142.96C142.943 143.387 142.623 143.96 142.623 144.68C142.623 145.267 142.823 145.733 143.223 146.08C143.65 146.4 144.25 146.68 145.023 146.92C145.796 147.133 146.716 147.36 147.783 147.6C148.743 147.84 149.65 148.107 150.503 148.4C151.383 148.693 152.156 149.053 152.823 149.48C153.516 149.88 154.063 150.413 154.463 151.08C154.89 151.747 155.103 152.573 155.103 153.56C155.103 154.787 154.77 155.84 154.103 156.72C153.436 157.6 152.476 158.28 151.223 158.76C149.996 159.213 148.516 159.44 146.783 159.44C145.21 159.44 143.863 159.267 142.743 158.92C141.65 158.573 140.73 158.12 139.983 157.56C139.236 157 138.663 156.4 138.263 155.76C137.863 155.12 137.583 154.507 137.423 153.92C137.29 153.333 137.25 152.84 137.303 152.44ZM158.241 152.44H162.441C162.654 153.427 163.201 154.24 164.081 154.88C164.961 155.493 166.147 155.8 167.641 155.8C168.627 155.8 169.387 155.707 169.921 155.52C170.481 155.307 170.867 155.013 171.081 154.64C171.294 154.24 171.401 153.813 171.401 153.36C171.401 152.773 171.227 152.32 170.881 152C170.561 151.68 170.067 151.413 169.401 151.2C168.761 150.987 167.961 150.8 167.001 150.64C165.987 150.4 165.001 150.147 164.041 149.88C163.081 149.587 162.214 149.213 161.441 148.76C160.667 148.307 160.054 147.747 159.601 147.08C159.147 146.387 158.921 145.547 158.921 144.56C158.921 143.653 159.134 142.84 159.561 142.12C159.987 141.373 160.574 140.747 161.321 140.24C162.094 139.733 162.987 139.347 164.001 139.08C165.041 138.787 166.161 138.64 167.361 138.64C169.121 138.64 170.587 138.92 171.761 139.48C172.934 140.04 173.814 140.827 174.401 141.84C175.014 142.853 175.321 144.013 175.321 145.32H171.361C171.147 144.28 170.734 143.52 170.121 143.04C169.507 142.56 168.574 142.32 167.321 142.32C166.094 142.32 165.161 142.533 164.521 142.96C163.881 143.387 163.561 143.96 163.561 144.68C163.561 145.267 163.761 145.733 164.161 146.08C164.587 146.4 165.187 146.68 165.961 146.92C166.734 147.133 167.654 147.36 168.721 147.6C169.681 147.84 170.587 148.107 171.441 148.4C172.321 148.693 173.094 149.053 173.761 149.48C174.454 149.88 175.001 150.413 175.401 151.08C175.827 151.747 176.041 152.573 176.041 153.56C176.041 154.787 175.707 155.84 175.041 156.72C174.374 157.6 173.414 158.28 172.161 158.76C170.934 159.213 169.454 159.44 167.721 159.44C166.147 159.44 164.801 159.267 163.681 158.92C162.587 158.573 161.667 158.12 160.921 157.56C160.174 157 159.601 156.4 159.201 155.76C158.801 155.12 158.521 154.507 158.361 153.92C158.227 153.333 158.187 152.84 158.241 152.44Z" fill="black"/>
<path d="M4.08 15L1.154 4.57H2.596L5.046 13.754H4.71L7.258 4.57H8.7L11.234 13.754H10.884L13.348 4.57H14.79L11.864 15H10.338L7.79 5.858H8.154L5.606 15H4.08ZM18.9073 15V4.57H20.2793V9.218H25.5013V4.57H26.8873V15H25.5013V10.478H20.2793V15H18.9073ZM30.9942 15L34.7322 4.57H36.3562L40.0942 15H38.6242L37.7702 12.55H33.3182L32.4642 15H30.9942ZM33.7522 11.29H37.3362L35.3482 5.564H35.7402L33.7522 11.29ZM45.3312 15V5.83H42.5032V4.57H49.5032V5.83H46.7172V15H45.3312ZM60.7636 15L57.8376 4.57H59.2796L61.7296 13.754H61.3936L63.9416 4.57H65.3836L67.9176 13.754H67.5676L70.0316 4.57H71.4736L68.5476 15H67.0216L64.4736 5.858H64.8376L62.2896 15H60.7636ZM75.5909 15V4.57H82.3809V5.83H76.9629V9.134H82.1009V10.394H76.9629V13.74H82.3809V15H75.5909ZM92.1011 15V4.57H95.5171C96.5717 4.57 97.4911 4.78467 98.2751 5.214C99.0591 5.64333 99.6657 6.25 100.095 7.034C100.524 7.80867 100.739 8.72333 100.739 9.778C100.739 10.8233 100.524 11.738 100.095 12.522C99.6657 13.306 99.0591 13.9173 98.2751 14.356C97.4911 14.7853 96.5717 15 95.5171 15H92.1011ZM93.4731 13.74H95.5311C96.3057 13.74 96.9731 13.5767 97.5331 13.25C98.1024 12.9233 98.5411 12.466 98.8491 11.878C99.1571 11.2807 99.3111 10.5807 99.3111 9.778C99.3111 8.966 99.1524 8.266 98.8351 7.678C98.5271 7.09 98.0884 6.63733 97.5191 6.32C96.9591 5.99333 96.2964 5.83 95.5311 5.83H93.4731V13.74ZM110.262 15.168C109.525 15.168 108.834 15.0373 108.19 14.776C107.546 14.5053 106.981 14.1273 106.496 13.642C106.02 13.1567 105.647 12.5873 105.376 11.934C105.105 11.2713 104.97 10.5527 104.97 9.778C104.97 8.994 105.105 8.27533 105.376 7.622C105.647 6.96867 106.02 6.39933 106.496 5.914C106.981 5.42867 107.541 5.05533 108.176 4.794C108.82 4.53267 109.515 4.402 110.262 4.402C111.009 4.402 111.699 4.53733 112.334 4.808C112.978 5.06933 113.538 5.44267 114.014 5.928C114.499 6.404 114.877 6.96867 115.148 7.622C115.428 8.27533 115.568 8.994 115.568 9.778C115.568 10.5527 115.428 11.2713 115.148 11.934C114.877 12.5873 114.499 13.1567 114.014 13.642C113.538 14.1273 112.978 14.5053 112.334 14.776C111.699 15.0373 111.009 15.168 110.262 15.168ZM110.262 13.894C110.841 13.894 111.368 13.7913 111.844 13.586C112.32 13.3713 112.731 13.0773 113.076 12.704C113.431 12.3213 113.701 11.8827 113.888 11.388C114.084 10.884 114.182 10.3473 114.182 9.778C114.182 9.20867 114.084 8.67667 113.888 8.182C113.701 7.68733 113.431 7.25333 113.076 6.88C112.731 6.49733 112.32 6.20333 111.844 5.998C111.368 5.78333 110.841 5.676 110.262 5.676C109.693 5.676 109.17 5.78333 108.694 5.998C108.218 6.20333 107.803 6.49733 107.448 6.88C107.103 7.25333 106.832 7.68733 106.636 8.182C106.44 8.67667 106.342 9.20867 106.342 9.778C106.342 10.3473 106.44 10.884 106.636 11.388C106.832 11.8827 107.103 12.3213 107.448 12.704C107.803 13.0773 108.218 13.3713 108.694 13.586C109.17 13.7913 109.693 13.894 110.262 13.894Z" fill="#333333"/>
</svg>
