<svg width="694" height="288" viewBox="0 0 694 288" fill="none" xmlns="http://www.w3.org/2000/svg">
<path d="M161.363 74.96C155.229 74.96 149.869 73.8667 145.283 71.68C140.749 69.4933 137.229 66.4 134.723 62.4C132.269 58.4 131.043 53.6267 131.043 48.08C131.043 42.5333 132.269 37.76 134.723 33.76C137.229 29.7067 140.749 26.6133 145.283 24.48C149.869 22.2933 155.229 21.2 161.363 21.2C167.603 21.2 172.963 22.2933 177.443 24.48C181.976 26.6133 185.496 29.7067 188.003 33.76C190.509 37.76 191.763 42.5333 191.763 48.08C191.763 53.6267 190.509 58.4 188.003 62.4C185.496 66.4 181.976 69.4933 177.443 71.68C172.963 73.8667 167.603 74.96 161.363 74.96ZM161.363 66.8C165.416 66.8 168.989 66.1333 172.083 64.8C175.229 63.4133 177.683 61.3333 179.443 58.56C181.256 55.7867 182.163 52.2933 182.163 48.08C182.163 43.92 181.256 40.4533 179.443 37.68C177.683 34.9067 175.229 32.8267 172.083 31.44C168.989 30.0533 165.416 29.36 161.363 29.36C157.363 29.36 153.763 30.0533 150.563 31.44C147.416 32.8267 144.936 34.9067 143.123 37.68C141.309 40.4533 140.403 43.92 140.403 48.08C140.403 52.2933 141.309 55.7867 143.123 58.56C144.936 61.3333 147.416 63.4133 150.563 64.8C153.763 66.1333 157.363 66.8 161.363 66.8ZM242.825 74H233.785V34.16H242.825V74ZM234.265 55.04L234.345 57.6C234.292 58.2933 234.079 59.3333 233.705 60.72C233.332 62.1067 232.745 63.6267 231.945 65.28C231.199 66.88 230.185 68.4267 228.905 69.92C227.625 71.36 226.025 72.56 224.105 73.52C222.239 74.4267 219.999 74.88 217.385 74.88C215.412 74.88 213.439 74.6133 211.465 74.08C209.545 73.6 207.785 72.7733 206.185 71.6C204.585 70.4267 203.305 68.8267 202.345 66.8C201.385 64.72 200.905 62.1333 200.905 59.04V34.16H209.945V57.36C209.945 59.8667 210.345 61.84 211.145 63.28C211.945 64.72 213.092 65.7333 214.585 66.32C216.132 66.9067 217.919 67.2 219.945 67.2C222.772 67.2 225.172 66.56 227.145 65.28C229.119 63.9467 230.692 62.3467 231.865 60.48C233.092 58.56 233.892 56.7467 234.265 55.04ZM252.702 34.16H261.742V74H252.702V34.16ZM276.222 41.84C273.289 41.84 270.782 42.4533 268.702 43.68C266.676 44.9067 265.022 46.4 263.742 48.16C262.516 49.92 261.689 51.6 261.262 53.2L261.182 48.72C261.182 48.1333 261.342 47.2533 261.662 46.08C261.982 44.8533 262.489 43.52 263.182 42.08C263.876 40.64 264.782 39.2533 265.902 37.92C267.076 36.5333 268.516 35.4133 270.222 34.56C271.929 33.7067 273.929 33.28 276.222 33.28V41.84ZM319.294 74.88C315.561 74.88 312.174 74 309.134 72.24C306.094 70.48 303.694 68.0533 301.934 64.96C300.174 61.8133 299.294 58.2133 299.294 54.16C299.294 50 300.147 46.3733 301.854 43.28C303.614 40.1333 305.987 37.68 308.974 35.92C312.014 34.16 315.454 33.28 319.294 33.28C322.654 33.28 325.481 33.84 327.774 34.96C330.121 36.0267 331.961 37.52 333.294 39.44C334.681 41.3067 335.667 43.4933 336.254 46C336.894 48.5067 337.214 51.2267 337.214 54.16C337.214 56.4 336.894 58.72 336.254 61.12C335.614 63.52 334.601 65.76 333.214 67.84C331.827 69.92 329.987 71.6267 327.694 72.96C325.401 74.24 322.601 74.88 319.294 74.88ZM322.094 67.52C325.081 67.52 327.641 66.9333 329.774 65.76C331.907 64.5867 333.507 63.0133 334.574 61.04C335.694 59.0133 336.254 56.72 336.254 54.16C336.254 51.3333 335.694 48.9333 334.574 46.96C333.454 44.9333 331.827 43.3867 329.694 42.32C327.614 41.2 325.081 40.64 322.094 40.64C317.774 40.64 314.441 41.8933 312.094 44.4C309.747 46.9067 308.574 50.16 308.574 54.16C308.574 56.7733 309.134 59.0933 310.254 61.12C311.427 63.0933 313.027 64.6667 315.054 65.84C317.081 66.96 319.427 67.52 322.094 67.52ZM336.254 18.16H345.294V74H336.894C336.787 72.7733 336.654 71.2533 336.494 69.44C336.334 67.6267 336.254 65.9733 336.254 64.48V18.16ZM367.247 17.2V25.84H356.447V17.2H367.247ZM357.247 34.16H366.367V74H357.247V34.16ZM394.921 67.84C391.081 67.84 387.641 67.1733 384.601 65.84C381.561 64.5067 379.161 62.56 377.401 60C375.694 57.44 374.841 54.3733 374.841 50.8C374.841 47.2267 375.694 44.1333 377.401 41.52C379.108 38.9067 381.454 36.88 384.441 35.44C387.481 34 390.974 33.28 394.921 33.28C396.041 33.28 397.108 33.36 398.121 33.52C399.188 33.68 400.201 33.8933 401.161 34.16L419.961 34.24V41.76C417.401 41.76 414.814 41.3867 412.201 40.64C409.588 39.8933 407.294 39.0667 405.321 38.16L405.081 37.68C406.894 38.5867 408.521 39.7067 409.961 41.04C411.454 42.32 412.628 43.7867 413.481 45.44C414.334 47.0933 414.761 48.9867 414.761 51.12C414.761 54.5867 413.908 57.5733 412.201 60.08C410.548 62.5867 408.228 64.5067 405.241 65.84C402.254 67.1733 398.814 67.84 394.921 67.84ZM407.721 90.24V88.4C407.721 85.84 406.948 84.0267 405.401 82.96C403.854 81.8933 401.694 81.36 398.921 81.36H387.961C385.774 81.36 383.908 81.1733 382.361 80.8C380.868 80.48 379.668 79.9733 378.761 79.28C377.854 78.64 377.188 77.8667 376.761 76.96C376.334 76.0533 376.121 75.0667 376.121 74C376.121 71.92 376.788 70.3467 378.121 69.28C379.454 68.16 381.188 67.44 383.321 67.12C385.508 66.8 387.828 66.7467 390.281 66.96L394.921 67.84C391.721 67.9467 389.294 68.24 387.641 68.72C386.041 69.1467 385.241 70.0267 385.241 71.36C385.241 72.16 385.561 72.8 386.201 73.28C386.841 73.76 387.748 74 388.921 74H400.441C403.748 74 406.628 74.3733 409.081 75.12C411.534 75.92 413.428 77.2267 414.761 79.04C416.094 80.9067 416.761 83.44 416.761 86.64V90.24H407.721ZM394.921 60.8C397.001 60.8 398.868 60.4267 400.521 59.68C402.228 58.88 403.561 57.7333 404.521 56.24C405.481 54.7467 405.961 52.9333 405.961 50.8C405.961 48.6667 405.481 46.8533 404.521 45.36C403.561 43.8133 402.254 42.64 400.601 41.84C398.948 41.04 397.054 40.64 394.921 40.64C392.788 40.64 390.868 41.04 389.161 41.84C387.508 42.64 386.201 43.8133 385.241 45.36C384.281 46.8533 383.801 48.6667 383.801 50.8C383.801 52.9333 384.281 54.7467 385.241 56.24C386.201 57.7333 387.508 58.88 389.161 59.68C390.814 60.4267 392.734 60.8 394.921 60.8ZM437.637 17.2V25.84H426.837V17.2H437.637ZM427.637 34.16H436.757V74H427.637V34.16ZM444.512 34.16H472.912V41.52H444.512V34.16ZM454.192 23.44H463.232V74H454.192V23.44ZM497.185 74.88C493.505 74.88 490.145 74 487.105 72.24C484.065 70.48 481.638 68.0533 479.825 64.96C478.065 61.8133 477.185 58.2133 477.185 54.16C477.185 50 478.091 46.3733 479.905 43.28C481.718 40.1333 484.171 37.68 487.265 35.92C490.411 34.16 493.931 33.28 497.825 33.28C502.145 33.28 505.558 34.2133 508.065 36.08C510.571 37.9467 512.358 40.4533 513.425 43.6C514.545 46.7467 515.105 50.2667 515.105 54.16C515.105 56.4 514.785 58.72 514.145 61.12C513.505 63.52 512.491 65.76 511.105 67.84C509.718 69.92 507.878 71.6267 505.585 72.96C503.291 74.24 500.491 74.88 497.185 74.88ZM499.985 67.52C502.971 67.52 505.531 66.9333 507.665 65.76C509.798 64.5867 511.398 63.0133 512.465 61.04C513.585 59.0133 514.145 56.72 514.145 54.16C514.145 51.3333 513.585 48.9333 512.465 46.96C511.345 44.9333 509.718 43.3867 507.585 42.32C505.505 41.2533 502.971 40.72 499.985 40.72C495.665 40.72 492.331 41.9733 489.985 44.48C487.638 46.9333 486.465 50.16 486.465 54.16C486.465 56.7733 487.025 59.0933 488.145 61.12C489.318 63.0933 490.918 64.6667 492.945 65.84C494.971 66.96 497.318 67.52 499.985 67.52ZM514.145 34.16H523.185V74H514.785C514.785 74 514.731 73.4933 514.625 72.48C514.518 71.4667 514.411 70.2133 514.305 68.72C514.198 67.2267 514.145 65.8133 514.145 64.48V34.16ZM533.815 18.16H542.855V74H533.815V18.16ZM23.3175 170.88C19.6375 170.88 16.2775 170 13.2375 168.24C10.1975 166.48 7.77083 164.053 5.9575 160.96C4.1975 157.813 3.3175 154.213 3.3175 150.16C3.3175 146 4.22417 142.373 6.0375 139.28C7.85083 136.133 10.3042 133.68 13.3975 131.92C16.5442 130.16 20.0642 129.28 23.9575 129.28C28.2775 129.28 31.6908 130.213 34.1975 132.08C36.7042 133.947 38.4908 136.453 39.5575 139.6C40.6775 142.747 41.2375 146.267 41.2375 150.16C41.2375 152.4 40.9175 154.72 40.2775 157.12C39.6375 159.52 38.6242 161.76 37.2375 163.84C35.8508 165.92 34.0108 167.627 31.7175 168.96C29.4242 170.24 26.6242 170.88 23.3175 170.88ZM26.1175 163.52C29.1042 163.52 31.6642 162.933 33.7975 161.76C35.9308 160.587 37.5308 159.013 38.5975 157.04C39.7175 155.013 40.2775 152.72 40.2775 150.16C40.2775 147.333 39.7175 144.933 38.5975 142.96C37.4775 140.933 35.8508 139.387 33.7175 138.32C31.6375 137.253 29.1042 136.72 26.1175 136.72C21.7975 136.72 18.4642 137.973 16.1175 140.48C13.7708 142.933 12.5975 146.16 12.5975 150.16C12.5975 152.773 13.1575 155.093 14.2775 157.12C15.4508 159.093 17.0508 160.667 19.0775 161.84C21.1042 162.96 23.4508 163.52 26.1175 163.52ZM40.2775 130.16H49.3175V170H40.9175C40.9175 170 40.8642 169.493 40.7575 168.48C40.6508 167.467 40.5442 166.213 40.4375 164.72C40.3308 163.227 40.2775 161.813 40.2775 160.48V130.16ZM77.1475 163.84C73.3075 163.84 69.8675 163.173 66.8275 161.84C63.7875 160.507 61.3875 158.56 59.6275 156C57.9208 153.44 57.0675 150.373 57.0675 146.8C57.0675 143.227 57.9208 140.133 59.6275 137.52C61.3342 134.907 63.6808 132.88 66.6675 131.44C69.7075 130 73.2008 129.28 77.1475 129.28C78.2675 129.28 79.3342 129.36 80.3475 129.52C81.4142 129.68 82.4275 129.893 83.3875 130.16L102.188 130.24V137.76C99.6275 137.76 97.0408 137.387 94.4275 136.64C91.8142 135.893 89.5208 135.067 87.5475 134.16L87.3075 133.68C89.1208 134.587 90.7475 135.707 92.1875 137.04C93.6808 138.32 94.8542 139.787 95.7075 141.44C96.5608 143.093 96.9875 144.987 96.9875 147.12C96.9875 150.587 96.1342 153.573 94.4275 156.08C92.7742 158.587 90.4542 160.507 87.4675 161.84C84.4808 163.173 81.0408 163.84 77.1475 163.84ZM89.9475 186.24V184.4C89.9475 181.84 89.1742 180.027 87.6275 178.96C86.0808 177.893 83.9208 177.36 81.1475 177.36H70.1875C68.0008 177.36 66.1342 177.173 64.5875 176.8C63.0942 176.48 61.8942 175.973 60.9875 175.28C60.0808 174.64 59.4142 173.867 58.9875 172.96C58.5608 172.053 58.3475 171.067 58.3475 170C58.3475 167.92 59.0142 166.347 60.3475 165.28C61.6808 164.16 63.4142 163.44 65.5475 163.12C67.7342 162.8 70.0542 162.747 72.5075 162.96L77.1475 163.84C73.9475 163.947 71.5208 164.24 69.8675 164.72C68.2675 165.147 67.4675 166.027 67.4675 167.36C67.4675 168.16 67.7875 168.8 68.4275 169.28C69.0675 169.76 69.9742 170 71.1475 170H82.6675C85.9742 170 88.8542 170.373 91.3075 171.12C93.7608 171.92 95.6542 173.227 96.9875 175.04C98.3208 176.907 98.9875 179.44 98.9875 182.64V186.24H89.9475ZM77.1475 156.8C79.2275 156.8 81.0942 156.427 82.7475 155.68C84.4542 154.88 85.7875 153.733 86.7475 152.24C87.7075 150.747 88.1875 148.933 88.1875 146.8C88.1875 144.667 87.7075 142.853 86.7475 141.36C85.7875 139.813 84.4808 138.64 82.8275 137.84C81.1742 137.04 79.2808 136.64 77.1475 136.64C75.0142 136.64 73.0942 137.04 71.3875 137.84C69.7342 138.64 68.4275 139.813 67.4675 141.36C66.5075 142.853 66.0275 144.667 66.0275 146.8C66.0275 148.933 66.5075 150.747 67.4675 152.24C68.4275 153.733 69.7342 154.88 71.3875 155.68C73.0408 156.427 74.9608 156.8 77.1475 156.8ZM142.435 156.88H151.155C150.728 159.6 149.635 162.027 147.875 164.16C146.168 166.24 143.875 167.893 140.995 169.12C138.115 170.293 134.648 170.88 130.595 170.88C125.955 170.88 121.848 170.053 118.275 168.4C114.702 166.693 111.875 164.293 109.795 161.2C107.768 158.107 106.755 154.427 106.755 150.16C106.755 145.947 107.742 142.267 109.715 139.12C111.742 135.973 114.515 133.547 118.035 131.84C121.555 130.133 125.635 129.28 130.275 129.28C135.022 129.28 138.995 130.133 142.195 131.84C145.448 133.493 147.848 136 149.395 139.36C150.942 142.667 151.582 146.853 151.315 151.92H115.875C116.142 154.16 116.888 156.16 118.115 157.92C119.342 159.68 120.995 161.067 123.075 162.08C125.155 163.093 127.608 163.6 130.435 163.6C133.528 163.6 136.115 162.987 138.195 161.76C140.328 160.48 141.742 158.853 142.435 156.88ZM130.035 136.56C126.355 136.56 123.342 137.44 120.995 139.2C118.648 140.96 117.128 143.227 116.435 146H142.275C142.008 143.013 140.782 140.693 138.595 139.04C136.408 137.387 133.555 136.56 130.035 136.56ZM159.226 130.16H168.266V170H159.226V130.16ZM185.146 129.28C187.492 129.28 189.652 129.6 191.626 130.24C193.599 130.88 195.279 131.867 196.666 133.2C198.106 134.48 199.199 136.107 199.946 138.08C200.746 140 201.146 142.267 201.146 144.88V170H192.106V146.64C192.106 143.387 191.306 140.987 189.706 139.44C188.159 137.84 185.679 137.04 182.266 137.04C179.706 137.04 177.359 137.6 175.226 138.72C173.146 139.787 171.439 141.2 170.106 142.96C168.772 144.667 167.999 146.533 167.786 148.56L167.706 144.24C167.972 142.267 168.559 140.4 169.466 138.64C170.372 136.827 171.572 135.227 173.066 133.84C174.559 132.4 176.319 131.28 178.346 130.48C180.426 129.68 182.692 129.28 185.146 129.28ZM254.303 154.56C253.983 157.973 252.889 160.907 251.023 163.36C249.156 165.813 246.649 167.68 243.503 168.96C240.356 170.24 236.703 170.88 232.543 170.88C228.169 170.88 224.196 170.08 220.623 168.48C217.049 166.88 214.196 164.56 212.063 161.52C209.983 158.427 208.943 154.64 208.943 150.16C208.943 145.733 209.983 141.973 212.063 138.88C214.196 135.787 217.049 133.413 220.623 131.76C224.196 130.107 228.169 129.28 232.543 129.28C236.703 129.28 240.329 129.947 243.423 131.28C246.516 132.56 248.996 134.427 250.863 136.88C252.783 139.28 253.903 142.16 254.223 145.52H245.983C245.076 142.747 243.423 140.587 241.023 139.04C238.623 137.44 235.796 136.64 232.543 136.64C229.929 136.64 227.529 137.173 225.343 138.24C223.156 139.253 221.396 140.773 220.063 142.8C218.783 144.773 218.143 147.227 218.143 150.16C218.143 153.093 218.783 155.573 220.063 157.6C221.396 159.573 223.156 161.067 225.343 162.08C227.529 163.093 229.929 163.6 232.543 163.6C236.116 163.6 239.023 162.827 241.263 161.28C243.556 159.68 245.156 157.44 246.062 154.56H254.303ZM258.516 130.16H268.116L284.356 168.4L276.516 170L258.516 130.16ZM303.316 130.16L277.556 186H268.036L279.076 164.16L293.636 130.16H303.316ZM325.332 130.64H354.452V137.92H325.332V130.64ZM348.452 114.16H355.172V121.92H350.052C348.612 121.867 347.332 122.027 346.212 122.4C345.092 122.773 344.212 123.467 343.572 124.48C342.985 125.493 342.692 126.933 342.692 128.8V170H333.652V127.92C333.652 124.72 334.239 122.107 335.412 120.08C336.585 118.053 338.265 116.56 340.452 115.6C342.692 114.64 345.359 114.16 348.452 114.16ZM361.179 130.16H370.219V170H361.179V130.16ZM384.699 137.84C381.765 137.84 379.259 138.453 377.179 139.68C375.152 140.907 373.499 142.4 372.219 144.16C370.992 145.92 370.165 147.6 369.739 149.2L369.659 144.72C369.659 144.133 369.819 143.253 370.139 142.08C370.459 140.853 370.965 139.52 371.659 138.08C372.352 136.64 373.259 135.253 374.379 133.92C375.552 132.533 376.992 131.413 378.699 130.56C380.405 129.707 382.405 129.28 384.699 129.28V137.84ZM412.695 170.88C408.215 170.88 404.215 170.08 400.695 168.48C397.175 166.88 394.375 164.533 392.295 161.44C390.268 158.347 389.255 154.587 389.255 150.16C389.255 145.787 390.268 142.053 392.295 138.96C394.375 135.813 397.175 133.413 400.695 131.76C404.215 130.107 408.215 129.28 412.695 129.28C417.175 129.28 421.148 130.107 424.615 131.76C428.135 133.413 430.908 135.813 432.935 138.96C434.962 142.053 435.975 145.787 435.975 150.16C435.975 154.587 434.962 158.347 432.935 161.44C430.908 164.533 428.135 166.88 424.615 168.48C421.148 170.08 417.175 170.88 412.695 170.88ZM412.695 163.6C415.308 163.6 417.682 163.093 419.815 162.08C421.948 161.013 423.655 159.493 424.935 157.52C426.215 155.493 426.855 153.04 426.855 150.16C426.855 147.333 426.215 144.907 424.935 142.88C423.655 140.8 421.948 139.227 419.815 138.16C417.735 137.093 415.362 136.56 412.695 136.56C410.135 136.56 407.762 137.093 405.575 138.16C403.442 139.227 401.708 140.773 400.375 142.8C399.095 144.827 398.455 147.28 398.455 150.16C398.455 153.04 399.095 155.493 400.375 157.52C401.655 159.493 403.362 161.013 405.495 162.08C407.682 163.093 410.082 163.6 412.695 163.6ZM443.913 130.16H452.953V170H443.913V130.16ZM469.833 129.28C472.18 129.28 474.34 129.6 476.313 130.24C478.286 130.88 479.966 131.867 481.353 133.2C482.793 134.48 483.886 136.107 484.633 138.08C485.433 140 485.833 142.267 485.833 144.88V170H476.793V146.64C476.793 143.387 475.993 140.987 474.393 139.44C472.846 137.84 470.366 137.04 466.953 137.04C464.393 137.04 462.046 137.6 459.913 138.72C457.833 139.787 456.126 141.2 454.793 142.96C453.46 144.667 452.686 146.533 452.473 148.56L452.393 144.24C452.66 142.267 453.246 140.4 454.153 138.64C455.06 136.827 456.26 135.227 457.753 133.84C459.246 132.4 461.006 131.28 463.033 130.48C465.113 129.68 467.38 129.28 469.833 129.28ZM501.913 129.28C504.26 129.28 506.393 129.6 508.313 130.24C510.286 130.88 511.993 131.867 513.433 133.2C514.873 134.48 515.993 136.107 516.793 138.08C517.593 140 517.993 142.267 517.993 144.88V170H508.873V146.64C508.873 143.387 508.073 140.987 506.473 139.44C504.926 137.84 502.446 137.04 499.033 137.04C496.473 137.04 494.126 137.6 491.993 138.72C489.86 139.787 488.126 141.2 486.793 142.96C485.513 144.667 484.766 146.533 484.553 148.56L484.393 144.08C484.66 142.16 485.273 140.32 486.233 138.56C487.193 136.8 488.42 135.227 489.913 133.84C491.46 132.4 493.246 131.28 495.273 130.48C497.3 129.68 499.513 129.28 501.913 129.28ZM564.177 170.88C560.497 170.88 557.137 170 554.097 168.24C551.057 166.48 548.63 164.053 546.817 160.96C545.057 157.813 544.177 154.213 544.177 150.16C544.177 146 545.084 142.373 546.897 139.28C548.71 136.133 551.164 133.68 554.257 131.92C557.404 130.16 560.924 129.28 564.817 129.28C569.137 129.28 572.55 130.213 575.057 132.08C577.564 133.947 579.35 136.453 580.417 139.6C581.537 142.747 582.097 146.267 582.097 150.16C582.097 152.4 581.777 154.72 581.137 157.12C580.497 159.52 579.484 161.76 578.097 163.84C576.71 165.92 574.87 167.627 572.577 168.96C570.284 170.24 567.484 170.88 564.177 170.88ZM566.977 163.52C569.964 163.52 572.524 162.933 574.657 161.76C576.79 160.587 578.39 159.013 579.457 157.04C580.577 155.013 581.137 152.72 581.137 150.16C581.137 147.333 580.577 144.933 579.457 142.96C578.337 140.933 576.71 139.387 574.577 138.32C572.497 137.253 569.964 136.72 566.977 136.72C562.657 136.72 559.324 137.973 556.977 140.48C554.63 142.933 553.457 146.16 553.457 150.16C553.457 152.773 554.017 155.093 555.137 157.12C556.31 159.093 557.91 160.667 559.937 161.84C561.964 162.96 564.31 163.52 566.977 163.52ZM581.137 130.16H590.177V170H581.777C581.777 170 581.724 169.493 581.617 168.48C581.51 167.467 581.404 166.213 581.297 164.72C581.19 163.227 581.137 161.813 581.137 160.48V130.16ZM600.007 130.16H609.047V170H600.007V130.16ZM625.927 129.28C628.274 129.28 630.434 129.6 632.407 130.24C634.38 130.88 636.06 131.867 637.447 133.2C638.887 134.48 639.98 136.107 640.727 138.08C641.527 140 641.927 142.267 641.927 144.88V170H632.887V146.64C632.887 143.387 632.087 140.987 630.487 139.44C628.94 137.84 626.46 137.04 623.047 137.04C620.487 137.04 618.14 137.6 616.007 138.72C613.927 139.787 612.22 141.2 610.887 142.96C609.554 144.667 608.78 146.533 608.567 148.56L608.487 144.24C608.754 142.267 609.34 140.4 610.247 138.64C611.154 136.827 612.354 135.227 613.847 133.84C615.34 132.4 617.1 131.28 619.127 130.48C621.207 129.68 623.474 129.28 625.927 129.28ZM647.423 130.16H657.023L673.263 168.4L665.423 170L647.423 130.16ZM692.223 130.16L666.463 186H656.943L667.983 164.16L682.543 130.16H692.223ZM14.0672 252.88H22.4672C22.8939 254.853 23.9872 256.48 25.7472 257.76C27.5072 258.987 29.8805 259.6 32.8672 259.6C34.8405 259.6 36.3605 259.413 37.4272 259.04C38.5472 258.613 39.3205 258.027 39.7472 257.28C40.1739 256.48 40.3872 255.627 40.3872 254.72C40.3872 253.547 40.0405 252.64 39.3472 252C38.7072 251.36 37.7205 250.827 36.3872 250.4C35.1072 249.973 33.5072 249.6 31.5872 249.28C29.5605 248.8 27.5872 248.293 25.6672 247.76C23.7472 247.173 22.0139 246.427 20.4672 245.52C18.9205 244.613 17.6939 243.493 16.7872 242.16C15.8805 240.773 15.4272 239.093 15.4272 237.12C15.4272 235.307 15.8539 233.68 16.7072 232.24C17.5605 230.747 18.7339 229.493 20.2272 228.48C21.7739 227.467 23.5605 226.693 25.5872 226.16C27.6672 225.573 29.9072 225.28 32.3072 225.28C35.8272 225.28 38.7605 225.84 41.1072 226.96C43.4539 228.08 45.2139 229.653 46.3872 231.68C47.6139 233.707 48.2272 236.027 48.2272 238.64H40.3072C39.8805 236.56 39.0539 235.04 37.8272 234.08C36.6005 233.12 34.7339 232.64 32.2272 232.64C29.7739 232.64 27.9072 233.067 26.6272 233.92C25.3472 234.773 24.7072 235.92 24.7072 237.36C24.7072 238.533 25.1072 239.467 25.9072 240.16C26.7605 240.8 27.9605 241.36 29.5072 241.84C31.0539 242.267 32.8939 242.72 35.0272 243.2C36.9472 243.68 38.7605 244.213 40.4672 244.8C42.2272 245.387 43.7739 246.107 45.1072 246.96C46.4939 247.76 47.5872 248.827 48.3872 250.16C49.2405 251.493 49.6672 253.147 49.6672 255.12C49.6672 257.573 49.0005 259.68 47.6672 261.44C46.3339 263.2 44.4139 264.56 41.9072 265.52C39.4539 266.427 36.4939 266.88 33.0272 266.88C29.8805 266.88 27.1872 266.533 24.9472 265.84C22.7605 265.147 20.9205 264.24 19.4272 263.12C17.9339 262 16.7872 260.8 15.9872 259.52C15.1872 258.24 14.6272 257.013 14.3072 255.84C14.0405 254.667 13.9605 253.68 14.0672 252.88ZM91.3022 252.88H100.022C99.5955 255.6 98.5022 258.027 96.7422 260.16C95.0355 262.24 92.7422 263.893 89.8622 265.12C86.9822 266.293 83.5155 266.88 79.4622 266.88C74.8222 266.88 70.7155 266.053 67.1422 264.4C63.5689 262.693 60.7422 260.293 58.6622 257.2C56.6355 254.107 55.6222 250.427 55.6222 246.16C55.6222 241.947 56.6089 238.267 58.5822 235.12C60.6089 231.973 63.3822 229.547 66.9022 227.84C70.4222 226.133 74.5022 225.28 79.1422 225.28C83.8889 225.28 87.8622 226.133 91.0622 227.84C94.3155 229.493 96.7155 232 98.2622 235.36C99.8089 238.667 100.449 242.853 100.182 247.92H64.7422C65.0089 250.16 65.7555 252.16 66.9822 253.92C68.2089 255.68 69.8622 257.067 71.9422 258.08C74.0222 259.093 76.4755 259.6 79.3022 259.6C82.3955 259.6 84.9822 258.987 87.0622 257.76C89.1955 256.48 90.6089 254.853 91.3022 252.88ZM78.9022 232.56C75.2222 232.56 72.2089 233.44 69.8622 235.2C67.5155 236.96 65.9955 239.227 65.3022 242H91.1422C90.8755 239.013 89.6489 236.693 87.4622 235.04C85.2755 233.387 82.4222 232.56 78.9022 232.56ZM108.093 226.16H117.133V266H108.093V226.16ZM131.613 233.84C128.679 233.84 126.173 234.453 124.093 235.68C122.066 236.907 120.413 238.4 119.133 240.16C117.906 241.92 117.079 243.6 116.653 245.2L116.573 240.72C116.573 240.133 116.733 239.253 117.053 238.08C117.373 236.853 117.879 235.52 118.573 234.08C119.266 232.64 120.173 231.253 121.293 229.92C122.466 228.533 123.906 227.413 125.613 226.56C127.319 225.707 129.319 225.28 131.613 225.28V233.84ZM158.009 259.6H154.809L168.649 226.16H178.489L160.729 266H152.169L134.649 226.16H144.569L158.009 259.6ZM195.45 209.2V217.84H184.65V209.2H195.45ZM185.45 226.16H194.57V266H185.45V226.16ZM248.404 250.56C248.084 253.973 246.991 256.907 245.124 259.36C243.257 261.813 240.751 263.68 237.604 264.96C234.457 266.24 230.804 266.88 226.644 266.88C222.271 266.88 218.297 266.08 214.724 264.48C211.151 262.88 208.297 260.56 206.164 257.52C204.084 254.427 203.044 250.64 203.044 246.16C203.044 241.733 204.084 237.973 206.164 234.88C208.297 231.787 211.151 229.413 214.724 227.76C218.297 226.107 222.271 225.28 226.644 225.28C230.804 225.28 234.431 225.947 237.524 227.28C240.617 228.56 243.097 230.427 244.964 232.88C246.884 235.28 248.004 238.16 248.324 241.52H240.084C239.177 238.747 237.524 236.587 235.124 235.04C232.724 233.44 229.897 232.64 226.644 232.64C224.031 232.64 221.631 233.173 219.444 234.24C217.257 235.253 215.497 236.773 214.164 238.8C212.884 240.773 212.244 243.227 212.244 246.16C212.244 249.093 212.884 251.573 214.164 253.6C215.497 255.573 217.257 257.067 219.444 258.08C221.631 259.093 224.031 259.6 226.644 259.6C230.217 259.6 233.124 258.827 235.364 257.28C237.657 255.68 239.257 253.44 240.164 250.56H248.404ZM289.818 252.88H298.538C298.111 255.6 297.018 258.027 295.258 260.16C293.551 262.24 291.258 263.893 288.378 265.12C285.498 266.293 282.031 266.88 277.978 266.88C273.338 266.88 269.231 266.053 265.658 264.4C262.084 262.693 259.258 260.293 257.178 257.2C255.151 254.107 254.138 250.427 254.138 246.16C254.138 241.947 255.124 238.267 257.098 235.12C259.124 231.973 261.898 229.547 265.418 227.84C268.938 226.133 273.018 225.28 277.658 225.28C282.404 225.28 286.378 226.133 289.578 227.84C292.831 229.493 295.231 232 296.778 235.36C298.324 238.667 298.964 242.853 298.698 247.92H263.258C263.524 250.16 264.271 252.16 265.498 253.92C266.724 255.68 268.378 257.067 270.458 258.08C272.538 259.093 274.991 259.6 277.818 259.6C280.911 259.6 283.498 258.987 285.578 257.76C287.711 256.48 289.124 254.853 289.818 252.88ZM277.418 232.56C273.738 232.56 270.724 233.44 268.378 235.2C266.031 236.96 264.511 239.227 263.818 242H289.658C289.391 239.013 288.164 236.693 285.978 235.04C283.791 233.387 280.938 232.56 277.418 232.56ZM351.044 266.88C347.737 266.88 344.937 266.24 342.644 264.96C340.404 263.68 338.591 262 337.204 259.92C335.817 257.84 334.804 255.6 334.164 253.2C333.524 250.747 333.204 248.4 333.204 246.16C333.204 243.227 333.497 240.507 334.084 238C334.724 235.493 335.711 233.307 337.044 231.44C338.431 229.52 340.271 228.027 342.564 226.96C344.857 225.84 347.684 225.28 351.044 225.28C354.777 225.28 358.137 226.187 361.124 228C364.164 229.76 366.564 232.213 368.324 235.36C370.137 238.453 371.044 242.053 371.044 246.16C371.044 250.267 370.137 253.893 368.324 257.04C366.511 260.133 364.084 262.56 361.044 264.32C358.057 266.027 354.724 266.88 351.044 266.88ZM348.324 259.52C350.991 259.52 353.337 258.96 355.364 257.84C357.444 256.667 359.044 255.093 360.164 253.12C361.284 251.093 361.844 248.773 361.844 246.16C361.844 242.16 360.671 238.907 358.324 236.4C355.977 233.893 352.644 232.64 348.324 232.64C345.657 232.64 343.231 233.2 341.044 234.32C338.911 235.387 337.231 236.933 336.004 238.96C334.777 240.933 334.164 243.333 334.164 246.16C334.164 248.72 334.724 251.013 335.844 253.04C336.964 255.013 338.564 256.587 340.644 257.76C342.777 258.933 345.337 259.52 348.324 259.52ZM325.124 226.16H333.764L334.164 236V282H325.124V226.16ZM378.874 226.16H387.914V266H378.874V226.16ZM402.394 233.84C399.461 233.84 396.954 234.453 394.874 235.68C392.847 236.907 391.194 238.4 389.914 240.16C388.687 241.92 387.861 243.6 387.434 245.2L387.354 240.72C387.354 240.133 387.514 239.253 387.834 238.08C388.154 236.853 388.661 235.52 389.354 234.08C390.047 232.64 390.954 231.253 392.074 229.92C393.247 228.533 394.687 227.413 396.394 226.56C398.101 225.707 400.101 225.28 402.394 225.28V233.84ZM430.39 266.88C425.91 266.88 421.91 266.08 418.39 264.48C414.87 262.88 412.07 260.533 409.99 257.44C407.964 254.347 406.95 250.587 406.95 246.16C406.95 241.787 407.964 238.053 409.99 234.96C412.07 231.813 414.87 229.413 418.39 227.76C421.91 226.107 425.91 225.28 430.39 225.28C434.87 225.28 438.844 226.107 442.31 227.76C445.83 229.413 448.604 231.813 450.63 234.96C452.657 238.053 453.67 241.787 453.67 246.16C453.67 250.587 452.657 254.347 450.63 257.44C448.604 260.533 445.83 262.88 442.31 264.48C438.844 266.08 434.87 266.88 430.39 266.88ZM430.39 259.6C433.004 259.6 435.377 259.093 437.51 258.08C439.644 257.013 441.35 255.493 442.63 253.52C443.91 251.493 444.55 249.04 444.55 246.16C444.55 243.333 443.91 240.907 442.63 238.88C441.35 236.8 439.644 235.227 437.51 234.16C435.43 233.093 433.057 232.56 430.39 232.56C427.83 232.56 425.457 233.093 423.27 234.16C421.137 235.227 419.404 236.773 418.07 238.8C416.79 240.827 416.15 243.28 416.15 246.16C416.15 249.04 416.79 251.493 418.07 253.52C419.35 255.493 421.057 257.013 423.19 258.08C425.377 259.093 427.777 259.6 430.39 259.6ZM479.962 259.6H476.762L490.602 226.16H500.442L482.682 266H474.122L456.602 226.16H466.522L479.962 259.6ZM517.403 209.2V217.84H506.603V209.2H517.403ZM507.403 226.16H516.523V266H507.403V226.16ZM544.997 266.88C541.264 266.88 537.877 266 534.837 264.24C531.797 262.48 529.397 260.053 527.637 256.96C525.877 253.813 524.997 250.213 524.997 246.16C524.997 242 525.851 238.373 527.557 235.28C529.317 232.133 531.691 229.68 534.677 227.92C537.717 226.16 541.157 225.28 544.997 225.28C548.357 225.28 551.184 225.84 553.477 226.96C555.824 228.027 557.664 229.52 558.997 231.44C560.384 233.307 561.371 235.493 561.957 238C562.597 240.507 562.917 243.227 562.917 246.16C562.917 248.4 562.597 250.72 561.957 253.12C561.317 255.52 560.304 257.76 558.917 259.84C557.531 261.92 555.691 263.627 553.397 264.96C551.104 266.24 548.304 266.88 544.997 266.88ZM547.797 259.52C550.784 259.52 553.344 258.933 555.477 257.76C557.611 256.587 559.211 255.013 560.277 253.04C561.397 251.013 561.957 248.72 561.957 246.16C561.957 243.333 561.397 240.933 560.277 238.96C559.157 236.933 557.531 235.387 555.397 234.32C553.317 233.2 550.784 232.64 547.797 232.64C543.477 232.64 540.144 233.893 537.797 236.4C535.451 238.907 534.277 242.16 534.277 246.16C534.277 248.773 534.837 251.093 535.957 253.12C537.131 255.093 538.731 256.667 540.757 257.84C542.784 258.96 545.131 259.52 547.797 259.52ZM561.957 210.16H570.997V266H562.597C562.491 264.773 562.357 263.253 562.197 261.44C562.037 259.627 561.957 257.973 561.957 256.48V210.16ZM615.99 252.88H624.71C624.283 255.6 623.19 258.027 621.43 260.16C619.723 262.24 617.43 263.893 614.55 265.12C611.67 266.293 608.203 266.88 604.15 266.88C599.51 266.88 595.403 266.053 591.83 264.4C588.256 262.693 585.43 260.293 583.35 257.2C581.323 254.107 580.31 250.427 580.31 246.16C580.31 241.947 581.296 238.267 583.27 235.12C585.296 231.973 588.07 229.547 591.59 227.84C595.11 226.133 599.19 225.28 603.83 225.28C608.576 225.28 612.55 226.133 615.75 227.84C619.003 229.493 621.403 232 622.95 235.36C624.496 238.667 625.136 242.853 624.87 247.92H589.43C589.696 250.16 590.443 252.16 591.67 253.92C592.896 255.68 594.55 257.067 596.63 258.08C598.71 259.093 601.163 259.6 603.99 259.6C607.083 259.6 609.67 258.987 611.75 257.76C613.883 256.48 615.296 254.853 615.99 252.88ZM603.59 232.56C599.91 232.56 596.896 233.44 594.55 235.2C592.203 236.96 590.683 239.227 589.99 242H615.83C615.563 239.013 614.336 236.693 612.15 235.04C609.963 233.387 607.11 232.56 603.59 232.56ZM650.7 266.88C646.967 266.88 643.58 266 640.54 264.24C637.5 262.48 635.1 260.053 633.34 256.96C631.58 253.813 630.7 250.213 630.7 246.16C630.7 242 631.554 238.373 633.26 235.28C635.02 232.133 637.394 229.68 640.38 227.92C643.42 226.16 646.86 225.28 650.7 225.28C654.06 225.28 656.887 225.84 659.18 226.96C661.527 228.027 663.367 229.52 664.7 231.44C666.087 233.307 667.074 235.493 667.66 238C668.3 240.507 668.62 243.227 668.62 246.16C668.62 248.4 668.3 250.72 667.66 253.12C667.02 255.52 666.007 257.76 664.62 259.84C663.234 261.92 661.394 263.627 659.1 264.96C656.807 266.24 654.007 266.88 650.7 266.88ZM653.5 259.52C656.487 259.52 659.047 258.933 661.18 257.76C663.314 256.587 664.914 255.013 665.98 253.04C667.1 251.013 667.66 248.72 667.66 246.16C667.66 243.333 667.1 240.933 665.98 238.96C664.86 236.933 663.234 235.387 661.1 234.32C659.02 233.2 656.487 232.64 653.5 232.64C649.18 232.64 645.847 233.893 643.5 236.4C641.154 238.907 639.98 242.16 639.98 246.16C639.98 248.773 640.54 251.093 641.66 253.12C642.834 255.093 644.434 256.667 646.46 257.84C648.487 258.96 650.834 259.52 653.5 259.52ZM667.66 210.16H676.7V266H668.3C668.194 264.773 668.06 263.253 667.9 261.44C667.74 259.627 667.66 257.973 667.66 256.48V210.16Z" fill="black"/>
</svg>
